<svg viewBox="0 0 793 313" height="313" id="page100" xmlns:xlink="http://www.w3.org/1999/xlink" ed:hSpacing="30" ed:vSpacing="30" xmlns:ev="http://www.w3.org/2001/xml-events" ed:name="Page-1" xmlns="http://www.w3.org/2000/svg" xmlns:ed="https://www.edrawsoft.com/xml/2017/SVGExtensions/" width="793"><style type="text/css"><![CDATA[
g[ed\:togtopicid],g[ed\:hyperlink],g[ed\:comment],g[ed\:note] {cursor:pointer;}
g[id] {-moz-user-select: none;-ms-user-select: none;user-select: none;}
svg text::selection,svg tspan::selection{background-color: #4285f4;color: #ffffff;fill: #ffffff;}
.st3 {fill:#303030;font-family:Arial;font-size:10pt}
.st2 {fill:#303030;font-family:Arial;font-size:14pt;font-weight:bold}
.st1 {fill:#ffffff;font-family:Arial;font-size:18pt;font-weight:bold}
]]></style><defs/><rect x="0" height="313" y="0" width="793" fill="#ffffff"/><path id="103" stroke="#454545" d="M11.8,0C25.5,0,47.5,0,74.8,0" transform="matrix(1,0,0,1,184.27,172)" stroke-linecap="round" stroke-width="3" stroke-linejoin="round" ed:tosuperid="102" ed:parentid="101" fill="none"/><path id="105" stroke="#454545" d="M-21.6,0L-10.6,0C5.7,0,5.7,0,21.6,0" transform="matrix(1,0,0,1,691.4,245.5)" stroke-linecap="round" stroke-linejoin="round" ed:tosuperid="104" ed:parentid="114" fill="none"/><path id="107" stroke="#454545" d="M-9.5,14.8C4.6,-12.5,34.9,-43.5,74.8,-43.5" transform="matrix(1,0,0,1,184.27,128.5)" stroke-linecap="round" stroke-width="3" stroke-linejoin="round" ed:tosuperid="106" ed:parentid="101" fill="none"/><path id="109" stroke="#454545" d="M-21.6,6.8L-10.6,6.8C5.7,-6.8,5.7,-6.8,21.6,-6.8" transform="matrix(1,0,0,1,380.81,165.25)" stroke-linecap="round" stroke-linejoin="round" ed:tosuperid="108" ed:parentid="102" fill="none"/><path id="111" stroke="#454545" d="M-10.6,-6.8C5.7,6.8,5.7,6.8,21.6,6.8" transform="matrix(1,0,0,1,380.81,178.75)" stroke-linecap="round" stroke-linejoin="round" ed:tosuperid="110" ed:parentid="102" fill="none"/><path id="113" stroke="#454545" d="M-9.5,-14.8C4.6,12.5,34.9,43.5,74.8,43.5" transform="matrix(1,0,0,1,184.27,215.5)" stroke-linecap="round" stroke-width="3" stroke-linejoin="round" ed:tosuperid="112" ed:parentid="101" fill="none"/><path id="115" stroke="#454545" d="M-21.6,6.8L-10.6,6.8C5.7,-6.8,5.7,-6.8,21.6,-6.8" transform="matrix(1,0,0,1,530.61,252.25)" stroke-linecap="round" stroke-linejoin="round" ed:tosuperid="114" ed:parentid="112" fill="none"/><path id="117" stroke="#454545" d="M-10.6,-6.8C5.7,6.8,5.7,6.8,21.6,6.8" transform="matrix(1,0,0,1,530.61,265.75)" stroke-linecap="round" stroke-linejoin="round" ed:tosuperid="116" ed:parentid="112" fill="none"/><path id="119" stroke="#454545" d="M-21.6,0L-10.6,0C5.7,0,5.7,0,21.6,0" transform="matrix(1,0,0,1,465.17,85)" stroke-linecap="round" stroke-linejoin="round" ed:tosuperid="118" ed:parentid="106" fill="none"/><g ed:layout="map" id="101" ed:height="60" transform="matrix(1,0,0,1,23,142)" ed:topictype="mainidea" ed:width="173,0225"><path stroke="#00af54" d="M30,0L143,0C159.6,0,173,13.4,173,30C173,46.6,159.6,60,143,60L30,60C13.4,60,0,46.6,0,30C0,13.4,13.4,0,30,0z" stroke-width="3" stroke-linejoin="round" fill="#00af54"/><text class="st1"><tspan x="25" textLength="121" style="white-space:pre" y="36.6">09/08/2022</tspan></text></g><g ed:layout="rightmap" id="102" ed:height="40" transform="matrix(1,0,0,1,259.02,152)" ed:parentid="101" ed:width="100,1875"><path stroke="#454545" d="M4,0L96.2,0C98.9,0,100.2,1.3,100.2,4L100.2,36C100.2,38.7,98.9,40,96.2,40L4,40C1.3,40,0,38.7,0,36L0,4C0,1.3,1.3,0,4,0z" stroke-width="2" stroke-linejoin="round" fill="#ffffff"/><text class="st2"><tspan x="18" textLength="61" style="white-space:pre" y="25.1">Trilhas</tspan></text></g><g ed:layout="rightmap" id="104" ed:height="20,5" transform="matrix(1,0,0,1,713,225)" ed:parentid="114" ed:width="59,140625"><path d="M0,0L59.1,0L59.1,20.5L0,20.5L0,0z" fill="#ffffff"/><path stroke="#454545" d="M0,20.5L59.1,20.5" stroke-linejoin="round" fill="none"/><text class="st3"><tspan x="8" textLength="41" style="white-space:pre" y="12.75">Xampp</tspan></text></g><g ed:layout="rightmap" id="106" ed:height="40" transform="matrix(1,0,0,1,259.02,65)" ed:parentid="101" ed:width="184,546875"><path stroke="#454545" d="M4,0L180.5,0C183.2,0,184.5,1.3,184.5,4L184.5,36C184.5,38.7,183.2,40,180.5,40L4,40C1.3,40,0,38.7,0,36L0,4C0,1.3,1.3,0,4,0z" stroke-width="2" stroke-linejoin="round" fill="#ffffff"/><text class="st2"><tspan x="18" textLength="146" style="white-space:pre" y="25.1">Plano de ensino</tspan></text></g><g ed:layout="rightmap" id="108" ed:height="20,5" transform="matrix(1,0,0,1,402.41,138)" ed:parentid="102" ed:width="72,859375"><path d="M0,0L72.9,0L72.9,20.5L0,20.5L0,0z" fill="#ffffff"/><path stroke="#454545" d="M0,20.5L72.9,20.5" stroke-linejoin="round" fill="none"/><text class="st3"><tspan x="8" textLength="55" style="white-space:pre" y="12.75">Back-end</tspan></text></g><g ed:layout="rightmap" id="110" ed:height="20,5" transform="matrix(1,0,0,1,402.41,165)" ed:parentid="102" ed:width="74,296875"><path d="M0,0L74.3,0L74.3,20.5L0,20.5L0,0z" fill="#ffffff"/><path stroke="#454545" d="M0,20.5L74.3,20.5" stroke-linejoin="round" fill="none"/><text class="st3"><tspan x="8" textLength="56" style="white-space:pre" y="12.75">Front-end</tspan></text></g><g ed:layout="rightmap" id="112" ed:height="40" transform="matrix(1,0,0,1,259.02,239)" ed:parentid="101" ed:width="249,984375"><path stroke="#454545" d="M4,0L246,0C248.7,0,250,1.3,250,4L250,36C250,38.7,248.7,40,246,40L4,40C1.3,40,0,38.7,0,36L0,4C0,1.3,1.3,0,4,0z" stroke-width="2" stroke-linejoin="round" fill="#ffffff"/><text class="st2"><tspan x="18" textLength="211" style="white-space:pre" y="25.1">Preparando o ambiente</tspan></text></g><g ed:layout="rightmap" id="114" ed:height="20,5" transform="matrix(1,0,0,1,552.21,225)" ed:parentid="112" ed:width="117,59375"><path d="M0,0L117.6,0L117.6,20.5L0,20.5L0,0z" fill="#ffffff"/><path stroke="#454545" d="M0,20.5L117.6,20.5" stroke-linejoin="round" fill="none"/><text class="st3"><tspan x="8" textLength="100" style="white-space:pre" y="12.75">Desenvolvimento</tspan></text></g><g ed:layout="rightmap" id="116" ed:height="20,5" transform="matrix(1,0,0,1,552.21,252)" ed:parentid="112" ed:width="73,578125"><path d="M0,0L73.6,0L73.6,20.5L0,20.5L0,0z" fill="#ffffff"/><path stroke="#454545" d="M0,20.5L73.6,20.5" stroke-linejoin="round" fill="none"/><text class="st3"><tspan x="8" textLength="56" style="white-space:pre" y="12.75">Produção</tspan></text></g><g ed:layout="rightmap" id="118" ed:height="20,5" transform="matrix(1,0,0,1,486.77,64.5)" ed:parentid="106" ed:width="151,828125"><path d="M0,0L151.8,0L151.8,20.5L0,20.5L0,0z" fill="#ffffff"/><path stroke="#454545" d="M0,20.5L151.8,20.5" stroke-linejoin="round" fill="none"/><text class="st3"><tspan x="8" textLength="133" style="white-space:pre" y="12.75">O que vamos aprender</tspan></text></g><svg xmlns="http://www.w3.org/2000/svg" height="303" width="793,1412500000001"><g style="opacity:0.15"><g transform="translate(0,0)"><g clip-path="url(#clip0)"><g clip-path="url(#clip1)"><rect height="32" transform="translate(74 160.974) rotate(-45)" width="32" fill="url(#paint0_linear)"/><path d="M96.6022 153.588C97.5009 153.588 98.2295 154.316 98.2295 155.215V166.721C98.2295 167.62 97.5009 168.348 96.6022 168.348C95.7035 168.348 94.975 167.62 94.975 166.721V155.215C94.975 154.316 95.7035 153.588 96.6022 153.588Z" fill="white" fill-opacity="0.6"/><path d="M89.0246 162.595L94.9751 168.546V166.721C94.9751 165.822 95.7037 165.094 96.6024 165.094C97.5011 165.094 98.2296 165.822 98.2296 166.721L98.2296 170.51C98.2296 172.685 95.6004 173.774 94.0628 172.236L85.3344 163.507C83.7967 161.97 84.8858 159.341 87.0603 159.341L104.18 159.341L98.2296 153.39V155.215C98.2296 156.113 97.5011 156.842 96.6024 156.842C95.7037 156.842 94.9751 156.113 94.9751 155.215L94.9751 151.426C94.9751 149.251 97.6043 148.162 99.1419 149.7L107.87 158.428C109.408 159.966 108.319 162.595 106.144 162.595H89.0246Z" fill="white"/></g></g><g opacity="0.8"><path d="M113.512 127.402L112.195 128.719L115.927 134.886L109.483 131.431L108.215 132.698L111.66 139.133L105.503 135.411L104.137 136.777L112.957 141.816L114.234 140.539L110.7 133.956L117.283 137.49L118.551 136.223L113.512 127.402ZM117.727 126.672C116.242 128.157 116.192 130.186 117.846 131.839C119.509 133.502 121.538 133.453 123.023 131.968C124.518 130.473 124.567 128.444 122.904 126.78C121.251 125.127 119.222 125.177 117.727 126.672ZM118.855 127.82C119.598 127.077 120.627 127.018 121.647 128.038C122.607 128.998 122.696 130.018 121.904 130.81C121.162 131.552 120.132 131.611 119.103 130.582C118.153 129.632 118.063 128.612 118.855 127.82ZM123.87 120.528C123.019 121.379 122.96 122.152 123.148 122.914L122.405 122.171L121.188 123.389L126.286 128.487L127.513 127.26L124.761 124.508C123.93 123.676 123.811 122.785 124.544 122.053C125.147 121.449 125.83 121.439 126.405 122.013L129.582 125.191L130.81 123.963L127.523 120.677C126.306 119.459 125.029 119.37 123.87 120.528ZM129.674 111.022L128.447 112.249L131.06 114.863C130.259 114.674 129.368 115.031 128.704 115.694C127.457 116.941 127.289 118.852 129.051 120.614C130.843 122.406 132.753 122.238 134.001 120.99C134.703 120.287 135.03 119.347 134.723 118.486L135.505 119.268L136.713 118.06L129.674 111.022ZM133.159 119.575C132.446 120.287 131.328 120.396 130.298 119.367C129.259 118.327 129.368 117.209 130.08 116.496C130.744 115.833 131.912 115.655 132.961 116.704C134.001 117.743 133.822 118.911 133.159 119.575ZM140.115 110.303L139.61 109.798C137.927 108.115 136.056 108.343 134.818 109.58C133.522 110.877 133.254 112.926 135.036 114.708C136.808 116.48 138.798 116.193 140.085 114.906C141.124 113.866 141.54 112.322 140.719 110.986L139.57 112.134C139.798 112.718 139.56 113.312 139.075 113.797C138.343 114.53 137.422 114.658 136.561 113.857L140.115 110.303ZM135.868 110.649C136.531 109.986 137.333 109.936 138.006 110.61L135.69 112.926C135.056 112.075 135.284 111.233 135.868 110.649ZM140.861 103.597L140.524 103.934C139.93 104.528 139.712 105.26 140.009 106.072L139.257 105.32L138.039 106.537L143.137 111.636L144.365 110.408L141.87 107.914C140.87 106.914 140.87 105.983 141.732 105.122L142.058 104.795L140.861 103.597ZM145.657 103.038C144.944 103.573 144.419 103.939 144.023 103.543C143.726 103.246 143.697 102.741 144.3 102.137C144.825 101.613 145.379 101.454 145.934 101.91L147.132 100.712C145.924 99.6426 144.459 99.9396 143.271 101.128C142.212 102.187 141.707 103.622 142.865 104.78C144.122 106.038 145.429 105.068 146.597 104.236C147.419 103.652 147.736 103.494 148.052 103.81C148.438 104.196 148.24 104.731 147.716 105.256C147.142 105.83 146.478 106.058 145.874 105.632L144.637 106.869C146.013 108.067 147.607 107.384 148.666 106.325C149.805 105.186 150.28 103.622 149.131 102.474C147.943 101.286 146.706 102.266 145.657 103.038ZM149.095 95.3037C148.233 96.165 148.194 96.9173 148.392 97.6895L145.699 94.9968L144.472 96.2244L151.51 103.263L152.738 102.035L149.986 99.2833C149.154 98.4518 149.035 97.5608 149.768 96.8282C150.372 96.2244 151.055 96.2145 151.629 96.7886L154.807 99.9664L156.034 98.7388L152.748 95.4522C151.53 94.2346 150.253 94.1455 149.095 95.3037ZM154.156 90.2421C152.889 91.5092 152.563 92.9842 153.553 94.3702L154.721 93.202C154.443 92.707 154.295 92.123 155.057 91.3607C155.493 90.9251 156.037 90.6578 156.423 91.0439C156.849 91.4696 156.532 91.9448 156.364 92.1725L155.483 93.3505C155.087 93.8851 154.146 95.2611 155.424 96.5381C156.503 97.6172 157.77 97.2212 158.581 96.4095C159.126 95.865 159.591 95.0037 159.334 93.9544L160.076 94.6968L161.274 93.499L157.74 89.9649C156.542 88.767 155.275 89.1234 154.156 90.2421ZM157.879 95.073C157.443 95.5086 156.958 95.6175 156.552 95.2116C155.988 94.6473 156.503 93.9544 156.691 93.7069L157.126 93.1129C157.344 92.8159 157.522 92.5783 157.631 92.3111L157.908 92.5882C158.591 93.2713 158.621 94.3306 157.879 95.073ZM160.139 84.3188L159.802 84.6554C159.208 85.2494 158.991 85.982 159.288 86.7937L158.535 86.0414L157.318 87.259L162.416 92.3572L163.643 91.1297L161.149 88.635C160.149 87.6352 160.149 86.7046 161.01 85.8434L161.337 85.5167L160.139 84.3188ZM168.066 82.3516L167.561 81.8468C165.878 80.1638 164.007 80.3915 162.769 81.629C161.473 82.9258 161.205 84.975 162.987 86.7569C164.759 88.5289 166.749 88.2418 168.036 86.9549C169.075 85.9154 169.491 84.3711 168.67 83.0347L167.521 84.183C167.749 84.7671 167.511 85.3611 167.026 85.8461C166.294 86.5787 165.373 86.7074 164.512 85.9055L168.066 82.3516ZM163.819 82.6981C164.482 82.0348 165.284 81.9853 165.957 82.6585L163.641 84.975C163.007 84.1236 163.235 83.2822 163.819 82.6981Z" fill="#999999"/><path d="M121.738 138.975L120.105 140.608L123.48 147.825L116.264 144.449L114.63 146.082L121.56 153.012L122.738 151.834L117.858 146.954L124.52 150.052L125.678 148.894L122.58 142.232L127.46 147.112L128.668 145.904L121.738 138.975ZM124.118 138.911L125.425 137.604L124.029 136.208L122.723 137.515L124.118 138.911ZM129.929 144.643L131.157 143.415L126.059 138.317L124.831 139.544L129.929 144.643ZM129.903 134.295C129.051 135.146 128.992 135.918 129.18 136.68L128.438 135.938L127.22 137.155L132.318 142.254L133.546 141.026L130.794 138.274C129.962 137.443 129.843 136.552 130.576 135.819C131.18 135.215 131.863 135.205 132.437 135.779L135.615 138.957L136.842 137.73L133.556 134.443C132.338 133.225 131.061 133.136 129.903 134.295ZM135.707 124.788L134.479 126.016L137.093 128.629C136.291 128.441 135.4 128.797 134.737 129.461C133.489 130.708 133.321 132.618 135.083 134.381C136.875 136.172 138.786 136.004 140.033 134.757C140.736 134.054 141.063 133.113 140.756 132.252L141.538 133.034L142.745 131.827L135.707 124.788ZM139.192 133.341C138.479 134.054 137.36 134.163 136.331 133.133C135.291 132.094 135.4 130.975 136.113 130.262C136.776 129.599 137.944 129.421 138.994 130.47C140.033 131.51 139.855 132.678 139.192 133.341ZM144.207 116.506L142.573 118.139L145.949 125.356L138.732 121.98L137.099 123.614L144.029 130.543L145.207 129.365L140.326 124.485L146.989 127.583L148.147 126.425L145.048 119.763L149.929 124.643L151.137 123.435L144.207 116.506ZM149.408 114.789C148.141 116.056 147.815 117.531 148.805 118.917L149.973 117.749C149.696 117.254 149.547 116.67 150.309 115.908C150.745 115.472 151.289 115.205 151.675 115.591C152.101 116.016 151.784 116.492 151.616 116.719L150.735 117.897C150.339 118.432 149.399 119.808 150.676 121.085C151.755 122.164 153.022 121.768 153.834 120.956C154.378 120.412 154.843 119.551 154.586 118.501L155.328 119.244L156.526 118.046L152.992 114.512C151.794 113.314 150.527 113.67 149.408 114.789ZM153.131 119.62C152.695 120.055 152.21 120.164 151.804 119.758C151.24 119.194 151.755 118.501 151.943 118.254L152.378 117.66C152.596 117.363 152.774 117.125 152.883 116.858L153.16 117.135C153.843 117.818 153.873 118.877 153.131 119.62ZM156.658 111.835C155.945 112.37 155.421 112.736 155.025 112.34C154.728 112.043 154.698 111.539 155.302 110.935C155.827 110.41 156.381 110.252 156.935 110.707L158.133 109.509C156.926 108.44 155.46 108.737 154.272 109.925C153.213 110.984 152.708 112.42 153.867 113.578C155.124 114.835 156.431 113.865 157.599 113.033C158.42 112.449 158.737 112.291 159.054 112.608C159.44 112.994 159.242 113.528 158.717 114.053C158.143 114.627 157.48 114.855 156.876 114.429L155.639 115.667C157.015 116.864 158.608 116.181 159.668 115.122C160.806 113.984 161.281 112.42 160.133 111.271C158.945 110.083 157.708 111.063 156.658 111.835ZM164.076 108.318L163.551 108.843C163.036 109.358 162.68 109.199 162.324 108.843L160.037 106.556L161.057 105.536L159.948 104.428L158.928 105.447L157.443 103.962L156.552 105.527L157.701 106.675L156.77 107.605L157.879 108.714L158.809 107.784L161.146 110.12C162.512 111.486 163.403 111.169 164.363 110.209L165.165 109.407L164.076 108.318ZM168.123 102.093L167.618 101.588C165.935 99.9055 164.064 100.133 162.827 101.371C161.53 102.667 161.263 104.717 163.044 106.499C164.816 108.271 166.806 107.984 168.093 106.697C169.133 105.657 169.548 104.113 168.727 102.776L167.578 103.925C167.806 104.509 167.569 105.103 167.083 105.588C166.351 106.32 165.43 106.449 164.569 105.647L168.123 102.093ZM163.876 102.44C164.539 101.777 165.341 101.727 166.014 102.4L163.698 104.717C163.064 103.865 163.292 103.024 163.876 102.44ZM168.869 95.388L168.532 95.7246C167.938 96.3186 167.72 97.0511 168.017 97.8629L167.265 97.1105L166.047 98.3282L171.146 103.426L172.373 102.199L169.878 99.7042C168.879 98.7044 168.879 97.7738 169.74 96.9125L170.067 96.5859L168.869 95.388Z" fill="#999999"/></g></g><g transform="translate(303,0)"><g clip-path="url(#clip0)"><g clip-path="url(#clip1)"><rect height="32" transform="translate(74 160.974) rotate(-45)" width="32" fill="url(#paint0_linear)"/><path d="M96.6022 153.588C97.5009 153.588 98.2295 154.316 98.2295 155.215V166.721C98.2295 167.62 97.5009 168.348 96.6022 168.348C95.7035 168.348 94.975 167.62 94.975 166.721V155.215C94.975 154.316 95.7035 153.588 96.6022 153.588Z" fill="white" fill-opacity="0.6"/><path d="M89.0246 162.595L94.9751 168.546V166.721C94.9751 165.822 95.7037 165.094 96.6024 165.094C97.5011 165.094 98.2296 165.822 98.2296 166.721L98.2296 170.51C98.2296 172.685 95.6004 173.774 94.0628 172.236L85.3344 163.507C83.7967 161.97 84.8858 159.341 87.0603 159.341L104.18 159.341L98.2296 153.39V155.215C98.2296 156.113 97.5011 156.842 96.6024 156.842C95.7037 156.842 94.9751 156.113 94.9751 155.215L94.9751 151.426C94.9751 149.251 97.6043 148.162 99.1419 149.7L107.87 158.428C109.408 159.966 108.319 162.595 106.144 162.595H89.0246Z" fill="white"/></g></g><g opacity="0.8"><path d="M113.512 127.402L112.195 128.719L115.927 134.886L109.483 131.431L108.215 132.698L111.66 139.133L105.503 135.411L104.137 136.777L112.957 141.816L114.234 140.539L110.7 133.956L117.283 137.49L118.551 136.223L113.512 127.402ZM117.727 126.672C116.242 128.157 116.192 130.186 117.846 131.839C119.509 133.502 121.538 133.453 123.023 131.968C124.518 130.473 124.567 128.444 122.904 126.78C121.251 125.127 119.222 125.177 117.727 126.672ZM118.855 127.82C119.598 127.077 120.627 127.018 121.647 128.038C122.607 128.998 122.696 130.018 121.904 130.81C121.162 131.552 120.132 131.611 119.103 130.582C118.153 129.632 118.063 128.612 118.855 127.82ZM123.87 120.528C123.019 121.379 122.96 122.152 123.148 122.914L122.405 122.171L121.188 123.389L126.286 128.487L127.513 127.26L124.761 124.508C123.93 123.676 123.811 122.785 124.544 122.053C125.147 121.449 125.83 121.439 126.405 122.013L129.582 125.191L130.81 123.963L127.523 120.677C126.306 119.459 125.029 119.37 123.87 120.528ZM129.674 111.022L128.447 112.249L131.06 114.863C130.259 114.674 129.368 115.031 128.704 115.694C127.457 116.941 127.289 118.852 129.051 120.614C130.843 122.406 132.753 122.238 134.001 120.99C134.703 120.287 135.03 119.347 134.723 118.486L135.505 119.268L136.713 118.06L129.674 111.022ZM133.159 119.575C132.446 120.287 131.328 120.396 130.298 119.367C129.259 118.327 129.368 117.209 130.08 116.496C130.744 115.833 131.912 115.655 132.961 116.704C134.001 117.743 133.822 118.911 133.159 119.575ZM140.115 110.303L139.61 109.798C137.927 108.115 136.056 108.343 134.818 109.58C133.522 110.877 133.254 112.926 135.036 114.708C136.808 116.48 138.798 116.193 140.085 114.906C141.124 113.866 141.54 112.322 140.719 110.986L139.57 112.134C139.798 112.718 139.56 113.312 139.075 113.797C138.343 114.53 137.422 114.658 136.561 113.857L140.115 110.303ZM135.868 110.649C136.531 109.986 137.333 109.936 138.006 110.61L135.69 112.926C135.056 112.075 135.284 111.233 135.868 110.649ZM140.861 103.597L140.524 103.934C139.93 104.528 139.712 105.26 140.009 106.072L139.257 105.32L138.039 106.537L143.137 111.636L144.365 110.408L141.87 107.914C140.87 106.914 140.87 105.983 141.732 105.122L142.058 104.795L140.861 103.597ZM145.657 103.038C144.944 103.573 144.419 103.939 144.023 103.543C143.726 103.246 143.697 102.741 144.3 102.137C144.825 101.613 145.379 101.454 145.934 101.91L147.132 100.712C145.924 99.6426 144.459 99.9396 143.271 101.128C142.212 102.187 141.707 103.622 142.865 104.78C144.122 106.038 145.429 105.068 146.597 104.236C147.419 103.652 147.736 103.494 148.052 103.81C148.438 104.196 148.24 104.731 147.716 105.256C147.142 105.83 146.478 106.058 145.874 105.632L144.637 106.869C146.013 108.067 147.607 107.384 148.666 106.325C149.805 105.186 150.28 103.622 149.131 102.474C147.943 101.286 146.706 102.266 145.657 103.038ZM149.095 95.3037C148.233 96.165 148.194 96.9173 148.392 97.6895L145.699 94.9968L144.472 96.2244L151.51 103.263L152.738 102.035L149.986 99.2833C149.154 98.4518 149.035 97.5608 149.768 96.8282C150.372 96.2244 151.055 96.2145 151.629 96.7886L154.807 99.9664L156.034 98.7388L152.748 95.4522C151.53 94.2346 150.253 94.1455 149.095 95.3037ZM154.156 90.2421C152.889 91.5092 152.563 92.9842 153.553 94.3702L154.721 93.202C154.443 92.707 154.295 92.123 155.057 91.3607C155.493 90.9251 156.037 90.6578 156.423 91.0439C156.849 91.4696 156.532 91.9448 156.364 92.1725L155.483 93.3505C155.087 93.8851 154.146 95.2611 155.424 96.5381C156.503 97.6172 157.77 97.2212 158.581 96.4095C159.126 95.865 159.591 95.0037 159.334 93.9544L160.076 94.6968L161.274 93.499L157.74 89.9649C156.542 88.767 155.275 89.1234 154.156 90.2421ZM157.879 95.073C157.443 95.5086 156.958 95.6175 156.552 95.2116C155.988 94.6473 156.503 93.9544 156.691 93.7069L157.126 93.1129C157.344 92.8159 157.522 92.5783 157.631 92.3111L157.908 92.5882C158.591 93.2713 158.621 94.3306 157.879 95.073ZM160.139 84.3188L159.802 84.6554C159.208 85.2494 158.991 85.982 159.288 86.7937L158.535 86.0414L157.318 87.259L162.416 92.3572L163.643 91.1297L161.149 88.635C160.149 87.6352 160.149 86.7046 161.01 85.8434L161.337 85.5167L160.139 84.3188ZM168.066 82.3516L167.561 81.8468C165.878 80.1638 164.007 80.3915 162.769 81.629C161.473 82.9258 161.205 84.975 162.987 86.7569C164.759 88.5289 166.749 88.2418 168.036 86.9549C169.075 85.9154 169.491 84.3711 168.67 83.0347L167.521 84.183C167.749 84.7671 167.511 85.3611 167.026 85.8461C166.294 86.5787 165.373 86.7074 164.512 85.9055L168.066 82.3516ZM163.819 82.6981C164.482 82.0348 165.284 81.9853 165.957 82.6585L163.641 84.975C163.007 84.1236 163.235 83.2822 163.819 82.6981Z" fill="#999999"/><path d="M121.738 138.975L120.105 140.608L123.48 147.825L116.264 144.449L114.63 146.082L121.56 153.012L122.738 151.834L117.858 146.954L124.52 150.052L125.678 148.894L122.58 142.232L127.46 147.112L128.668 145.904L121.738 138.975ZM124.118 138.911L125.425 137.604L124.029 136.208L122.723 137.515L124.118 138.911ZM129.929 144.643L131.157 143.415L126.059 138.317L124.831 139.544L129.929 144.643ZM129.903 134.295C129.051 135.146 128.992 135.918 129.18 136.68L128.438 135.938L127.22 137.155L132.318 142.254L133.546 141.026L130.794 138.274C129.962 137.443 129.843 136.552 130.576 135.819C131.18 135.215 131.863 135.205 132.437 135.779L135.615 138.957L136.842 137.73L133.556 134.443C132.338 133.225 131.061 133.136 129.903 134.295ZM135.707 124.788L134.479 126.016L137.093 128.629C136.291 128.441 135.4 128.797 134.737 129.461C133.489 130.708 133.321 132.618 135.083 134.381C136.875 136.172 138.786 136.004 140.033 134.757C140.736 134.054 141.063 133.113 140.756 132.252L141.538 133.034L142.745 131.827L135.707 124.788ZM139.192 133.341C138.479 134.054 137.36 134.163 136.331 133.133C135.291 132.094 135.4 130.975 136.113 130.262C136.776 129.599 137.944 129.421 138.994 130.47C140.033 131.51 139.855 132.678 139.192 133.341ZM144.207 116.506L142.573 118.139L145.949 125.356L138.732 121.98L137.099 123.614L144.029 130.543L145.207 129.365L140.326 124.485L146.989 127.583L148.147 126.425L145.048 119.763L149.929 124.643L151.137 123.435L144.207 116.506ZM149.408 114.789C148.141 116.056 147.815 117.531 148.805 118.917L149.973 117.749C149.696 117.254 149.547 116.67 150.309 115.908C150.745 115.472 151.289 115.205 151.675 115.591C152.101 116.016 151.784 116.492 151.616 116.719L150.735 117.897C150.339 118.432 149.399 119.808 150.676 121.085C151.755 122.164 153.022 121.768 153.834 120.956C154.378 120.412 154.843 119.551 154.586 118.501L155.328 119.244L156.526 118.046L152.992 114.512C151.794 113.314 150.527 113.67 149.408 114.789ZM153.131 119.62C152.695 120.055 152.21 120.164 151.804 119.758C151.24 119.194 151.755 118.501 151.943 118.254L152.378 117.66C152.596 117.363 152.774 117.125 152.883 116.858L153.16 117.135C153.843 117.818 153.873 118.877 153.131 119.62ZM156.658 111.835C155.945 112.37 155.421 112.736 155.025 112.34C154.728 112.043 154.698 111.539 155.302 110.935C155.827 110.41 156.381 110.252 156.935 110.707L158.133 109.509C156.926 108.44 155.46 108.737 154.272 109.925C153.213 110.984 152.708 112.42 153.867 113.578C155.124 114.835 156.431 113.865 157.599 113.033C158.42 112.449 158.737 112.291 159.054 112.608C159.44 112.994 159.242 113.528 158.717 114.053C158.143 114.627 157.48 114.855 156.876 114.429L155.639 115.667C157.015 116.864 158.608 116.181 159.668 115.122C160.806 113.984 161.281 112.42 160.133 111.271C158.945 110.083 157.708 111.063 156.658 111.835ZM164.076 108.318L163.551 108.843C163.036 109.358 162.68 109.199 162.324 108.843L160.037 106.556L161.057 105.536L159.948 104.428L158.928 105.447L157.443 103.962L156.552 105.527L157.701 106.675L156.77 107.605L157.879 108.714L158.809 107.784L161.146 110.12C162.512 111.486 163.403 111.169 164.363 110.209L165.165 109.407L164.076 108.318ZM168.123 102.093L167.618 101.588C165.935 99.9055 164.064 100.133 162.827 101.371C161.53 102.667 161.263 104.717 163.044 106.499C164.816 108.271 166.806 107.984 168.093 106.697C169.133 105.657 169.548 104.113 168.727 102.776L167.578 103.925C167.806 104.509 167.569 105.103 167.083 105.588C166.351 106.32 165.43 106.449 164.569 105.647L168.123 102.093ZM163.876 102.44C164.539 101.777 165.341 101.727 166.014 102.4L163.698 104.717C163.064 103.865 163.292 103.024 163.876 102.44ZM168.869 95.388L168.532 95.7246C167.938 96.3186 167.72 97.0511 168.017 97.8629L167.265 97.1105L166.047 98.3282L171.146 103.426L172.373 102.199L169.878 99.7042C168.879 98.7044 168.879 97.7738 169.74 96.9125L170.067 96.5859L168.869 95.388Z" fill="#999999"/></g></g><g transform="translate(606,0)"><g clip-path="url(#clip0)"><g clip-path="url(#clip1)"><rect height="32" transform="translate(74 160.974) rotate(-45)" width="32" fill="url(#paint0_linear)"/><path d="M96.6022 153.588C97.5009 153.588 98.2295 154.316 98.2295 155.215V166.721C98.2295 167.62 97.5009 168.348 96.6022 168.348C95.7035 168.348 94.975 167.62 94.975 166.721V155.215C94.975 154.316 95.7035 153.588 96.6022 153.588Z" fill="white" fill-opacity="0.6"/><path d="M89.0246 162.595L94.9751 168.546V166.721C94.9751 165.822 95.7037 165.094 96.6024 165.094C97.5011 165.094 98.2296 165.822 98.2296 166.721L98.2296 170.51C98.2296 172.685 95.6004 173.774 94.0628 172.236L85.3344 163.507C83.7967 161.97 84.8858 159.341 87.0603 159.341L104.18 159.341L98.2296 153.39V155.215C98.2296 156.113 97.5011 156.842 96.6024 156.842C95.7037 156.842 94.9751 156.113 94.9751 155.215L94.9751 151.426C94.9751 149.251 97.6043 148.162 99.1419 149.7L107.87 158.428C109.408 159.966 108.319 162.595 106.144 162.595H89.0246Z" fill="white"/></g></g><g opacity="0.8"><path d="M113.512 127.402L112.195 128.719L115.927 134.886L109.483 131.431L108.215 132.698L111.66 139.133L105.503 135.411L104.137 136.777L112.957 141.816L114.234 140.539L110.7 133.956L117.283 137.49L118.551 136.223L113.512 127.402ZM117.727 126.672C116.242 128.157 116.192 130.186 117.846 131.839C119.509 133.502 121.538 133.453 123.023 131.968C124.518 130.473 124.567 128.444 122.904 126.78C121.251 125.127 119.222 125.177 117.727 126.672ZM118.855 127.82C119.598 127.077 120.627 127.018 121.647 128.038C122.607 128.998 122.696 130.018 121.904 130.81C121.162 131.552 120.132 131.611 119.103 130.582C118.153 129.632 118.063 128.612 118.855 127.82ZM123.87 120.528C123.019 121.379 122.96 122.152 123.148 122.914L122.405 122.171L121.188 123.389L126.286 128.487L127.513 127.26L124.761 124.508C123.93 123.676 123.811 122.785 124.544 122.053C125.147 121.449 125.83 121.439 126.405 122.013L129.582 125.191L130.81 123.963L127.523 120.677C126.306 119.459 125.029 119.37 123.87 120.528ZM129.674 111.022L128.447 112.249L131.06 114.863C130.259 114.674 129.368 115.031 128.704 115.694C127.457 116.941 127.289 118.852 129.051 120.614C130.843 122.406 132.753 122.238 134.001 120.99C134.703 120.287 135.03 119.347 134.723 118.486L135.505 119.268L136.713 118.06L129.674 111.022ZM133.159 119.575C132.446 120.287 131.328 120.396 130.298 119.367C129.259 118.327 129.368 117.209 130.08 116.496C130.744 115.833 131.912 115.655 132.961 116.704C134.001 117.743 133.822 118.911 133.159 119.575ZM140.115 110.303L139.61 109.798C137.927 108.115 136.056 108.343 134.818 109.58C133.522 110.877 133.254 112.926 135.036 114.708C136.808 116.48 138.798 116.193 140.085 114.906C141.124 113.866 141.54 112.322 140.719 110.986L139.57 112.134C139.798 112.718 139.56 113.312 139.075 113.797C138.343 114.53 137.422 114.658 136.561 113.857L140.115 110.303ZM135.868 110.649C136.531 109.986 137.333 109.936 138.006 110.61L135.69 112.926C135.056 112.075 135.284 111.233 135.868 110.649ZM140.861 103.597L140.524 103.934C139.93 104.528 139.712 105.26 140.009 106.072L139.257 105.32L138.039 106.537L143.137 111.636L144.365 110.408L141.87 107.914C140.87 106.914 140.87 105.983 141.732 105.122L142.058 104.795L140.861 103.597ZM145.657 103.038C144.944 103.573 144.419 103.939 144.023 103.543C143.726 103.246 143.697 102.741 144.3 102.137C144.825 101.613 145.379 101.454 145.934 101.91L147.132 100.712C145.924 99.6426 144.459 99.9396 143.271 101.128C142.212 102.187 141.707 103.622 142.865 104.78C144.122 106.038 145.429 105.068 146.597 104.236C147.419 103.652 147.736 103.494 148.052 103.81C148.438 104.196 148.24 104.731 147.716 105.256C147.142 105.83 146.478 106.058 145.874 105.632L144.637 106.869C146.013 108.067 147.607 107.384 148.666 106.325C149.805 105.186 150.28 103.622 149.131 102.474C147.943 101.286 146.706 102.266 145.657 103.038ZM149.095 95.3037C148.233 96.165 148.194 96.9173 148.392 97.6895L145.699 94.9968L144.472 96.2244L151.51 103.263L152.738 102.035L149.986 99.2833C149.154 98.4518 149.035 97.5608 149.768 96.8282C150.372 96.2244 151.055 96.2145 151.629 96.7886L154.807 99.9664L156.034 98.7388L152.748 95.4522C151.53 94.2346 150.253 94.1455 149.095 95.3037ZM154.156 90.2421C152.889 91.5092 152.563 92.9842 153.553 94.3702L154.721 93.202C154.443 92.707 154.295 92.123 155.057 91.3607C155.493 90.9251 156.037 90.6578 156.423 91.0439C156.849 91.4696 156.532 91.9448 156.364 92.1725L155.483 93.3505C155.087 93.8851 154.146 95.2611 155.424 96.5381C156.503 97.6172 157.77 97.2212 158.581 96.4095C159.126 95.865 159.591 95.0037 159.334 93.9544L160.076 94.6968L161.274 93.499L157.74 89.9649C156.542 88.767 155.275 89.1234 154.156 90.2421ZM157.879 95.073C157.443 95.5086 156.958 95.6175 156.552 95.2116C155.988 94.6473 156.503 93.9544 156.691 93.7069L157.126 93.1129C157.344 92.8159 157.522 92.5783 157.631 92.3111L157.908 92.5882C158.591 93.2713 158.621 94.3306 157.879 95.073ZM160.139 84.3188L159.802 84.6554C159.208 85.2494 158.991 85.982 159.288 86.7937L158.535 86.0414L157.318 87.259L162.416 92.3572L163.643 91.1297L161.149 88.635C160.149 87.6352 160.149 86.7046 161.01 85.8434L161.337 85.5167L160.139 84.3188ZM168.066 82.3516L167.561 81.8468C165.878 80.1638 164.007 80.3915 162.769 81.629C161.473 82.9258 161.205 84.975 162.987 86.7569C164.759 88.5289 166.749 88.2418 168.036 86.9549C169.075 85.9154 169.491 84.3711 168.67 83.0347L167.521 84.183C167.749 84.7671 167.511 85.3611 167.026 85.8461C166.294 86.5787 165.373 86.7074 164.512 85.9055L168.066 82.3516ZM163.819 82.6981C164.482 82.0348 165.284 81.9853 165.957 82.6585L163.641 84.975C163.007 84.1236 163.235 83.2822 163.819 82.6981Z" fill="#999999"/><path d="M121.738 138.975L120.105 140.608L123.48 147.825L116.264 144.449L114.63 146.082L121.56 153.012L122.738 151.834L117.858 146.954L124.52 150.052L125.678 148.894L122.58 142.232L127.46 147.112L128.668 145.904L121.738 138.975ZM124.118 138.911L125.425 137.604L124.029 136.208L122.723 137.515L124.118 138.911ZM129.929 144.643L131.157 143.415L126.059 138.317L124.831 139.544L129.929 144.643ZM129.903 134.295C129.051 135.146 128.992 135.918 129.18 136.68L128.438 135.938L127.22 137.155L132.318 142.254L133.546 141.026L130.794 138.274C129.962 137.443 129.843 136.552 130.576 135.819C131.18 135.215 131.863 135.205 132.437 135.779L135.615 138.957L136.842 137.73L133.556 134.443C132.338 133.225 131.061 133.136 129.903 134.295ZM135.707 124.788L134.479 126.016L137.093 128.629C136.291 128.441 135.4 128.797 134.737 129.461C133.489 130.708 133.321 132.618 135.083 134.381C136.875 136.172 138.786 136.004 140.033 134.757C140.736 134.054 141.063 133.113 140.756 132.252L141.538 133.034L142.745 131.827L135.707 124.788ZM139.192 133.341C138.479 134.054 137.36 134.163 136.331 133.133C135.291 132.094 135.4 130.975 136.113 130.262C136.776 129.599 137.944 129.421 138.994 130.47C140.033 131.51 139.855 132.678 139.192 133.341ZM144.207 116.506L142.573 118.139L145.949 125.356L138.732 121.98L137.099 123.614L144.029 130.543L145.207 129.365L140.326 124.485L146.989 127.583L148.147 126.425L145.048 119.763L149.929 124.643L151.137 123.435L144.207 116.506ZM149.408 114.789C148.141 116.056 147.815 117.531 148.805 118.917L149.973 117.749C149.696 117.254 149.547 116.67 150.309 115.908C150.745 115.472 151.289 115.205 151.675 115.591C152.101 116.016 151.784 116.492 151.616 116.719L150.735 117.897C150.339 118.432 149.399 119.808 150.676 121.085C151.755 122.164 153.022 121.768 153.834 120.956C154.378 120.412 154.843 119.551 154.586 118.501L155.328 119.244L156.526 118.046L152.992 114.512C151.794 113.314 150.527 113.67 149.408 114.789ZM153.131 119.62C152.695 120.055 152.21 120.164 151.804 119.758C151.24 119.194 151.755 118.501 151.943 118.254L152.378 117.66C152.596 117.363 152.774 117.125 152.883 116.858L153.16 117.135C153.843 117.818 153.873 118.877 153.131 119.62ZM156.658 111.835C155.945 112.37 155.421 112.736 155.025 112.34C154.728 112.043 154.698 111.539 155.302 110.935C155.827 110.41 156.381 110.252 156.935 110.707L158.133 109.509C156.926 108.44 155.46 108.737 154.272 109.925C153.213 110.984 152.708 112.42 153.867 113.578C155.124 114.835 156.431 113.865 157.599 113.033C158.42 112.449 158.737 112.291 159.054 112.608C159.44 112.994 159.242 113.528 158.717 114.053C158.143 114.627 157.48 114.855 156.876 114.429L155.639 115.667C157.015 116.864 158.608 116.181 159.668 115.122C160.806 113.984 161.281 112.42 160.133 111.271C158.945 110.083 157.708 111.063 156.658 111.835ZM164.076 108.318L163.551 108.843C163.036 109.358 162.68 109.199 162.324 108.843L160.037 106.556L161.057 105.536L159.948 104.428L158.928 105.447L157.443 103.962L156.552 105.527L157.701 106.675L156.77 107.605L157.879 108.714L158.809 107.784L161.146 110.12C162.512 111.486 163.403 111.169 164.363 110.209L165.165 109.407L164.076 108.318ZM168.123 102.093L167.618 101.588C165.935 99.9055 164.064 100.133 162.827 101.371C161.53 102.667 161.263 104.717 163.044 106.499C164.816 108.271 166.806 107.984 168.093 106.697C169.133 105.657 169.548 104.113 168.727 102.776L167.578 103.925C167.806 104.509 167.569 105.103 167.083 105.588C166.351 106.32 165.43 106.449 164.569 105.647L168.123 102.093ZM163.876 102.44C164.539 101.777 165.341 101.727 166.014 102.4L163.698 104.717C163.064 103.865 163.292 103.024 163.876 102.44ZM168.869 95.388L168.532 95.7246C167.938 96.3186 167.72 97.0511 168.017 97.8629L167.265 97.1105L166.047 98.3282L171.146 103.426L172.373 102.199L169.878 99.7042C168.879 98.7044 168.879 97.7738 169.74 96.9125L170.067 96.5859L168.869 95.388Z" fill="#999999"/></g></g><defs><linearGradient id="paint0_linear" gradientUnits="userSpaceOnUse" y1="40.1696" y2="-1.8431" x2="-6.84284" x1="32"><stop stop-color="#008899"/><stop stop-color="#66FF66" offset="1"/></linearGradient><clipPath id="clip0"><rect height="32" transform="translate(74 160.974) rotate(-45)" width="32" fill="white"/></clipPath><clipPath id="clip1"><rect x="74" height="32" rx="7.30097" y="160.974" transform="rotate(-45 74 160.974)" width="32" fill="white"/></clipPath></defs></g><g height="45" style="transform-origin: 0% 0%;" transform="translate(596.266,0), scale(0.5625)" width="196,875"><path d="M0 0H350V80H20C8.9543 80 0 71.0457 0 60V0Z" fill="#14AF78"/><path d="M30.53 46.5H28.586V35.322H24.734V33.648H34.382V35.322H30.53V46.5ZM40.0281 36.618C40.4121 36.618 40.7661 36.648 41.0901 36.708L40.8921 38.49C40.5801 38.406 40.2561 38.364 39.9201 38.364C39.4281 38.364 38.9721 38.484 38.5521 38.724C38.1321 38.964 37.7901 39.312 37.5261 39.768C37.2741 40.212 37.1481 40.752 37.1481 41.388V46.5H35.2401V36.798H36.7521L37.0041 38.526H37.0761C37.3761 38.01 37.7781 37.566 38.2821 37.194C38.7861 36.81 39.3681 36.618 40.0281 36.618ZM43.8586 33.108C44.1466 33.108 44.3986 33.192 44.6146 33.36C44.8306 33.528 44.9386 33.81 44.9386 34.206C44.9386 34.59 44.8306 34.872 44.6146 35.052C44.3986 35.22 44.1466 35.304 43.8586 35.304C43.5586 35.304 43.3006 35.22 43.0846 35.052C42.8686 34.872 42.7606 34.59 42.7606 34.206C42.7606 33.81 42.8686 33.528 43.0846 33.36C43.3006 33.192 43.5586 33.108 43.8586 33.108ZM44.7946 36.798V46.5H42.8866V36.798H44.7946ZM51.5529 36.618C52.7649 36.618 53.6709 36.888 54.2709 37.428C54.8829 37.956 55.1889 38.79 55.1889 39.93V46.5H53.8389L53.4609 45.15H53.3889C52.9689 45.678 52.5249 46.068 52.0569 46.32C51.6009 46.56 50.9649 46.68 50.1489 46.68C49.2729 46.68 48.5469 46.446 47.9709 45.978C47.3949 45.498 47.1069 44.754 47.1069 43.746C47.1069 42.75 47.4789 42 48.2229 41.496C48.9789 40.98 50.1249 40.698 51.6609 40.65L53.3169 40.596V40.056C53.3169 39.348 53.1549 38.85 52.8309 38.562C52.5069 38.262 52.0509 38.112 51.4629 38.112C50.9709 38.112 50.4969 38.184 50.0409 38.328C49.5849 38.472 49.1469 38.646 48.7269 38.85L48.1149 37.464C48.5709 37.224 49.0929 37.026 49.6809 36.87C50.2809 36.702 50.9049 36.618 51.5529 36.618ZM53.2989 41.838L52.0029 41.874C50.8989 41.922 50.1309 42.108 49.6989 42.432C49.2789 42.756 49.0689 43.2 49.0689 43.764C49.0689 44.268 49.2189 44.634 49.5189 44.862C49.8189 45.09 50.2089 45.204 50.6889 45.204C51.4329 45.204 52.0509 44.994 52.5429 44.574C53.0469 44.154 53.2989 43.524 53.2989 42.684V41.838ZM60.0348 46.5H58.1268V32.82H60.0348V46.5ZM77.2829 33.648L72.7469 46.5H70.7309L66.2129 33.648H68.2109L70.9649 41.712C71.1209 42.144 71.2709 42.618 71.4149 43.134C71.5589 43.65 71.6669 44.118 71.7389 44.538C71.8109 44.118 71.9189 43.65 72.0629 43.134C72.2069 42.618 72.3569 42.138 72.5129 41.694L75.2669 33.648H77.2829ZM82.2455 36.618C83.5175 36.618 84.5195 37.014 85.2515 37.806C85.9835 38.586 86.3495 39.654 86.3495 41.01V42.054H79.8335C79.8575 43.05 80.1155 43.812 80.6075 44.34C81.1115 44.868 81.8135 45.132 82.7135 45.132C83.3375 45.132 83.8895 45.078 84.3695 44.97C84.8615 44.85 85.3655 44.676 85.8815 44.448V46.032C85.3895 46.26 84.8975 46.422 84.4055 46.518C83.9135 46.626 83.3255 46.68 82.6415 46.68C81.7055 46.68 80.8775 46.494 80.1575 46.122C79.4375 45.75 78.8735 45.198 78.4655 44.466C78.0695 43.734 77.8715 42.822 77.8715 41.73C77.8715 40.638 78.0515 39.714 78.4115 38.958C78.7835 38.202 79.2935 37.626 79.9415 37.23C80.6015 36.822 81.3695 36.618 82.2455 36.618ZM82.2455 38.094C81.5615 38.094 81.0095 38.316 80.5895 38.76C80.1815 39.204 79.9415 39.834 79.8695 40.65H84.4415C84.4295 39.894 84.2435 39.282 83.8835 38.814C83.5355 38.334 82.9895 38.094 82.2455 38.094ZM93.5183 36.618C93.9023 36.618 94.2563 36.648 94.5803 36.708L94.3823 38.49C94.0703 38.406 93.7463 38.364 93.4103 38.364C92.9183 38.364 92.4623 38.484 92.0423 38.724C91.6223 38.964 91.2803 39.312 91.0163 39.768C90.7643 40.212 90.6383 40.752 90.6383 41.388V46.5H88.7303V36.798H90.2423L90.4943 38.526H90.5663C90.8663 38.01 91.2683 37.566 91.7723 37.194C92.2763 36.81 92.8583 36.618 93.5183 36.618ZM102.821 43.764C102.821 44.724 102.473 45.45 101.777 45.942C101.093 46.434 100.127 46.68 98.8788 46.68C98.1948 46.68 97.6068 46.632 97.1148 46.536C96.6348 46.44 96.1908 46.29 95.7828 46.086V44.412C96.2028 44.616 96.6948 44.802 97.2588 44.97C97.8348 45.126 98.3928 45.204 98.9328 45.204C99.6528 45.204 100.169 45.09 100.481 44.862C100.805 44.634 100.967 44.328 100.967 43.944C100.967 43.728 100.907 43.536 100.787 43.368C100.667 43.188 100.439 43.008 100.103 42.828C99.7788 42.636 99.2988 42.42 98.6628 42.18C98.0388 41.94 97.5108 41.694 97.0788 41.442C96.6588 41.19 96.3348 40.89 96.1068 40.542C95.8788 40.194 95.7648 39.756 95.7648 39.228C95.7648 38.388 96.1008 37.746 96.7728 37.302C97.4568 36.846 98.3568 36.618 99.4728 36.618C100.061 36.618 100.613 36.678 101.129 36.798C101.657 36.918 102.167 37.086 102.659 37.302L102.029 38.76C101.609 38.58 101.177 38.43 100.733 38.31C100.289 38.178 99.8388 38.112 99.3828 38.112C98.2068 38.112 97.6188 38.454 97.6188 39.138C97.6188 39.366 97.6848 39.564 97.8168 39.732C97.9608 39.9 98.2008 40.068 98.5368 40.236C98.8848 40.404 99.3648 40.608 99.9768 40.848C100.565 41.076 101.069 41.316 101.489 41.568C101.921 41.808 102.251 42.102 102.479 42.45C102.707 42.798 102.821 43.236 102.821 43.764ZM106.068 33.108C106.356 33.108 106.608 33.192 106.824 33.36C107.04 33.528 107.148 33.81 107.148 34.206C107.148 34.59 107.04 34.872 106.824 35.052C106.608 35.22 106.356 35.304 106.068 35.304C105.768 35.304 105.51 35.22 105.294 35.052C105.078 34.872 104.97 34.59 104.97 34.206C104.97 33.81 105.078 33.528 105.294 33.36C105.51 33.192 105.768 33.108 106.068 33.108ZM107.004 36.798V46.5H105.096V36.798H107.004ZM118.55 41.64C118.55 43.248 118.136 44.49 117.308 45.366C116.48 46.242 115.364 46.68 113.96 46.68C113.084 46.68 112.304 46.488 111.62 46.104C110.948 45.708 110.414 45.138 110.018 44.394C109.634 43.638 109.442 42.72 109.442 41.64C109.442 40.032 109.85 38.796 110.666 37.932C111.482 37.056 112.598 36.618 114.014 36.618C114.902 36.618 115.682 36.816 116.354 37.212C117.038 37.596 117.572 38.16 117.956 38.904C118.352 39.648 118.55 40.56 118.55 41.64ZM111.404 41.64C111.404 42.732 111.608 43.584 112.016 44.196C112.436 44.808 113.096 45.114 113.996 45.114C114.896 45.114 115.55 44.808 115.958 44.196C116.378 43.584 116.588 42.732 116.588 41.64C116.588 40.536 116.378 39.69 115.958 39.102C115.55 38.502 114.89 38.202 113.978 38.202C113.078 38.202 112.424 38.502 112.016 39.102C111.608 39.69 111.404 40.536 111.404 41.64ZM125.883 36.618C127.011 36.618 127.875 36.9 128.475 37.464C129.075 38.028 129.375 38.934 129.375 40.182V46.5H127.485V40.452C127.485 38.94 126.819 38.184 125.487 38.184C124.503 38.184 123.819 38.478 123.435 39.066C123.063 39.654 122.877 40.5 122.877 41.604V46.5H120.969V36.798H122.481L122.751 38.094H122.859C123.171 37.59 123.597 37.218 124.137 36.978C124.689 36.738 125.271 36.618 125.883 36.618Z" fill="white" fill-opacity="0.72"/><g clip-path="url(#clip2)"><g clip-path="url(#clip3)"><rect height="48" transform="translate(145.5 16)" width="48" fill="url(#paint1_linear)"/><g transform="translate(0 0)"><path d="M177.308 32.1387C178.261 33.0919 178.261 34.6374 177.308 35.5906L165.104 47.7949C164.15 48.7481 162.605 48.7481 161.652 47.7949C160.698 46.8417 160.698 45.2962 161.652 44.343L173.856 32.1387C174.809 31.1855 176.355 31.1855 177.308 32.1387Z" fill="white" fill-opacity="0.6"/><path d="M159.716 33.655V46.278L161.652 44.3427C162.605 43.3895 164.15 43.3895 165.104 44.3427C166.057 45.2959 166.057 46.8414 165.104 47.7946L161.085 51.8133C158.778 54.1198 154.835 52.4863 154.835 49.2244V30.7087C154.835 27.4468 158.778 25.8133 161.085 28.1197L179.243 46.2781V33.655L177.308 35.5904C176.355 36.5436 174.809 36.5436 173.856 35.5904C172.903 34.6371 172.903 33.0917 173.856 32.1385L177.875 28.1197C180.181 25.8133 184.125 27.4468 184.125 30.7087V49.2244C184.125 52.4863 180.181 54.1198 177.875 51.8133L159.716 33.655Z" fill="white"/></g></g></g><g transform="translate(0 0)"><path d="M222.04 23H219.38L216.92 33L213.9 23H211.34L208.32 32.98L205.86 23H203.1L206.92 37H209.5L212.58 26.78L215.66 37H218.22L222.04 23ZM227.036 26.52C224.036 26.52 221.936 28.52 221.936 31.86C221.936 35.22 224.036 37.22 227.036 37.22C230.056 37.22 232.156 35.22 232.156 31.86C232.156 28.52 230.056 26.52 227.036 26.52ZM227.016 28.82C228.516 28.82 229.616 29.8 229.616 31.86C229.616 33.8 228.676 34.92 227.076 34.92C225.576 34.92 224.476 33.94 224.476 31.86C224.476 29.94 225.416 28.82 227.016 28.82ZM239.448 26.52C237.728 26.52 236.888 27.24 236.308 28.2V26.7H233.848V37H236.328V31.44C236.328 29.76 237.108 28.74 238.588 28.74C239.808 28.74 240.508 29.42 240.508 30.58V37H242.988V30.36C242.988 27.9 241.788 26.52 239.448 26.52ZM254.914 22.78H252.434V28.06C251.814 27.06 250.554 26.52 249.214 26.52C246.694 26.52 244.594 28.28 244.594 31.84C244.594 35.46 246.694 37.22 249.214 37.22C250.634 37.22 251.914 36.6 252.474 35.42V37H254.914V22.78ZM249.794 34.94C248.354 34.94 247.114 33.92 247.114 31.84C247.114 29.74 248.354 28.72 249.794 28.72C251.134 28.72 252.494 29.72 252.494 31.84C252.494 33.94 251.134 34.94 249.794 34.94ZM266.186 32.6V31.58C266.186 28.18 264.066 26.52 261.566 26.52C258.946 26.52 256.606 28.32 256.606 31.92C256.606 35.5 258.906 37.22 261.506 37.22C263.606 37.22 265.586 36.08 266.106 33.9H263.786C263.426 34.72 262.586 35.08 261.606 35.08C260.126 35.08 259.066 34.28 259.006 32.6H266.186ZM261.546 28.66C262.886 28.66 263.746 29.42 263.746 30.78H259.066C259.286 29.28 260.366 28.66 261.546 28.66ZM273.713 26.58H273.033C271.833 26.58 270.873 27.1 270.353 28.22V26.7H267.893V37H270.373V31.96C270.373 29.94 271.313 29 273.053 29H273.713V26.58ZM279.123 30.86C277.863 30.68 276.963 30.52 276.963 29.72C276.963 29.12 277.443 28.58 278.663 28.58C279.723 28.58 280.443 28.98 280.543 30H282.963C282.823 27.7 281.043 26.52 278.643 26.52C276.503 26.52 274.543 27.46 274.543 29.8C274.543 32.34 276.843 32.68 278.863 33.02C280.283 33.26 280.763 33.42 280.763 34.06C280.763 34.84 280.023 35.18 278.963 35.18C277.803 35.18 276.903 34.74 276.723 33.7H274.223C274.403 36.3 276.703 37.22 278.843 37.22C281.143 37.22 283.203 36.12 283.203 33.8C283.203 31.4 280.963 31.14 279.123 30.86ZM290.409 26.52C288.669 26.52 287.869 27.24 287.289 28.22V22.78H284.809V37H287.289V31.44C287.289 29.76 288.069 28.74 289.549 28.74C290.769 28.74 291.469 29.42 291.469 30.58V37H293.949V30.36C293.949 27.9 292.749 26.52 290.409 26.52ZM300.635 26.52C298.075 26.52 296.255 27.68 295.855 30.08H298.215C298.435 29.3 298.875 28.56 300.415 28.56C301.295 28.56 302.115 28.84 302.115 29.62C302.115 30.48 301.315 30.64 300.915 30.7L298.835 31C297.895 31.14 295.555 31.58 295.555 34.16C295.555 36.34 297.235 37.22 298.875 37.22C299.975 37.22 301.315 36.82 302.115 35.5V37H304.535V29.86C304.535 27.44 302.895 26.52 300.635 26.52ZM299.515 35.16C298.635 35.16 298.035 34.78 298.035 33.96C298.035 32.82 299.255 32.64 299.695 32.58L300.735 32.42C301.255 32.34 301.675 32.28 302.055 32.12V32.68C302.055 34.06 301.015 35.16 299.515 35.16ZM312.661 26.58H311.981C310.781 26.58 309.821 27.1 309.301 28.22V26.7H306.841V37H309.321V31.96C309.321 29.94 310.261 29 312.001 29H312.661V26.58ZM322.656 32.6V31.58C322.656 28.18 320.536 26.52 318.036 26.52C315.416 26.52 313.076 28.32 313.076 31.92C313.076 35.5 315.376 37.22 317.976 37.22C320.076 37.22 322.056 36.08 322.576 33.9H320.256C319.896 34.72 319.056 35.08 318.076 35.08C316.596 35.08 315.536 34.28 315.476 32.6H322.656ZM318.016 28.66C319.356 28.66 320.216 29.42 320.216 30.78H315.536C315.756 29.28 316.836 28.66 318.016 28.66Z" fill="white"/><path d="M218.66 43H215.36L211.48 53.7L207.6 43H204.3V57H206.68V47.14L210.28 57H212.62L216.22 47.14V57H218.66V43ZM221.129 45.34H223.769V42.52H221.129V45.34ZM221.209 57H223.689V46.7H221.209V57ZM231.635 46.52C229.915 46.52 229.075 47.24 228.495 48.2V46.7H226.035V57H228.515V51.44C228.515 49.76 229.295 48.74 230.775 48.74C231.995 48.74 232.695 49.42 232.695 50.58V57H235.175V50.36C235.175 47.9 233.975 46.52 231.635 46.52ZM247.101 42.78H244.621V48.06C244.001 47.06 242.741 46.52 241.401 46.52C238.881 46.52 236.781 48.28 236.781 51.84C236.781 55.46 238.881 57.22 241.401 57.22C242.821 57.22 244.101 56.6 244.661 55.42V57H247.101V42.78ZM241.981 54.94C240.541 54.94 239.301 53.92 239.301 51.84C239.301 49.74 240.541 48.72 241.981 48.72C243.321 48.72 244.681 49.72 244.681 51.84C244.681 53.94 243.321 54.94 241.981 54.94ZM264.054 43H260.754L256.874 53.7L252.994 43H249.694V57H252.074V47.14L255.674 57H258.014L261.614 47.14V57H264.054V43ZM271.043 46.52C268.483 46.52 266.663 47.68 266.263 50.08H268.623C268.843 49.3 269.283 48.56 270.823 48.56C271.703 48.56 272.523 48.84 272.523 49.62C272.523 50.48 271.723 50.64 271.323 50.7L269.243 51C268.303 51.14 265.963 51.58 265.963 54.16C265.963 56.34 267.643 57.22 269.283 57.22C270.383 57.22 271.723 56.82 272.523 55.5V57H274.943V49.86C274.943 47.44 273.303 46.52 271.043 46.52ZM269.923 55.16C269.043 55.16 268.443 54.78 268.443 53.96C268.443 52.82 269.663 52.64 270.103 52.58L271.143 52.42C271.663 52.34 272.083 52.28 272.463 52.12V52.68C272.463 54.06 271.423 55.16 269.923 55.16ZM281.349 50.86C280.089 50.68 279.189 50.52 279.189 49.72C279.189 49.12 279.669 48.58 280.889 48.58C281.949 48.58 282.669 48.98 282.769 50H285.189C285.049 47.7 283.269 46.52 280.869 46.52C278.729 46.52 276.769 47.46 276.769 49.8C276.769 52.34 279.069 52.68 281.089 53.02C282.509 53.26 282.989 53.42 282.989 54.06C282.989 54.84 282.249 55.18 281.189 55.18C280.029 55.18 279.129 54.74 278.949 53.7H276.449C276.629 56.3 278.929 57.22 281.069 57.22C283.369 57.22 285.429 56.12 285.429 53.8C285.429 51.4 283.189 51.14 281.349 50.86ZM292.395 54.8H291.335C290.295 54.8 290.095 54.28 290.095 53.56V48.94H292.155V46.7H290.095V43.7L287.615 44.38V46.7H285.735V48.94H287.615V53.66C287.615 56.42 288.835 57 290.775 57H292.395V54.8ZM302.771 52.6V51.58C302.771 48.18 300.651 46.52 298.151 46.52C295.531 46.52 293.191 48.32 293.191 51.92C293.191 55.5 295.491 57.22 298.091 57.22C300.191 57.22 302.171 56.08 302.691 53.9H300.371C300.011 54.72 299.171 55.08 298.191 55.08C296.711 55.08 295.651 54.28 295.591 52.6H302.771ZM298.131 48.66C299.471 48.66 300.331 49.42 300.331 50.78H295.651C295.871 49.28 296.951 48.66 298.131 48.66ZM310.298 46.58H309.618C308.418 46.58 307.458 47.1 306.938 48.22V46.7H304.478V57H306.958V51.96C306.958 49.94 307.898 49 309.638 49H310.298V46.58Z" fill="white"/></g><defs><linearGradient id="paint1_linear" gradientUnits="userSpaceOnUse" y1="60.2544" y2="-2.76465" x2="-10.2643" x1="48"><stop stop-color="#008899"/><stop stop-color="#66FF66" offset="1"/></linearGradient><clipPath id="clip2"><rect height="48" transform="translate(145.5 16)" width="48" fill="white"/></clipPath><clipPath id="clip3"><rect x="145.5" height="48" rx="10.9515" y="16" width="48" fill="white"/></clipPath></defs></g></svg></svg>